<?xml version="1.0" encoding="UTF-8" standalone="no"?><svg
   version="1.1"
   id="svg1"
   width="2560"
   height="1440"
   viewBox="0 0 2560 1440"
  
   xmlns:inkscape="http://www.inkscape.org/namespaces/inkscape"
   xmlns:sodipodi="http://sodipodi.sourceforge.net/DTD/sodipodi-0.dtd"
   xmlns:xlink="http://www.w3.org/1999/xlink"
   xmlns="http://www.w3.org/2000/svg"
   xmlns:svg="http://www.w3.org/2000/svg"><defs
     id="defs1"><clipPath
       clipPathUnits="userSpaceOnUse"
       id="clipPath2"><path
         d="M 0,1080 H 1920 V 0 H 0 Z"
         transform="translate(-1236.6987,-734.26572)"
         id="path2" /></clipPath><clipPath
       clipPathUnits="userSpaceOnUse"
       id="clipPath4"><path
         d="M 0,1080 H 1920 V 0 H 0 Z"
         transform="translate(-977.70685,-639.53261)"
         id="path4" /></clipPath><clipPath
       clipPathUnits="userSpaceOnUse"
       id="clipPath6"><path
         d="M 0,1080 H 1920 V 0 H 0 Z"
         transform="translate(-431.11231,-244.64453)"
         id="path6" /></clipPath><clipPath
       clipPathUnits="userSpaceOnUse"
       id="clipPath8"><path
         d="M 0,1080 H 1920 V 0 H 0 Z"
         transform="translate(-531.80362,-226.02728)"
         id="path8" /></clipPath><clipPath
       clipPathUnits="userSpaceOnUse"
       id="clipPath10"><path
         d="M 0,1080 H 1920 V 0 H 0 Z"
         transform="translate(-662.52272,-226.82701)"
         id="path10" /></clipPath><clipPath
       clipPathUnits="userSpaceOnUse"
       id="clipPath12"><path
         d="M 0,1080 H 1920 V 0 H 0 Z"
         transform="translate(-869.9212,-353.96041)"
         id="path12" /></clipPath><clipPath
       clipPathUnits="userSpaceOnUse"
       id="clipPath14"><path
         d="M 0,1080 H 1920 V 0 H 0 Z"
         transform="translate(-875.11472,-226.02728)"
         id="path14" /></clipPath><clipPath
       clipPathUnits="userSpaceOnUse"
       id="clipPath16"><path
         d="M 0,1080 H 1920 V 0 H 0 Z"
         transform="translate(-1147.3761,-331.93861)"
         id="path16" /></clipPath><clipPath
       clipPathUnits="userSpaceOnUse"
       id="clipPath18"><path
         d="M 0,1080 H 1920 V 0 H 0 Z"
         transform="translate(-1174.1889,-226.02728)"
         id="path18" /></clipPath><clipPath
       clipPathUnits="userSpaceOnUse"
       id="clipPath20"><path
         d="M 0,1080 H 1920 V 0 H 0 Z"
         transform="translate(-1290.2941,-244.64453)"
         id="path20" /></clipPath><clipPath
       clipPathUnits="userSpaceOnUse"
       id="clipPath22"><path
         d="M 0,1080 H 1920 V 0 H 0 Z"
         transform="translate(-1390.9851,-226.02728)"
         id="path22" /></clipPath><clipPath
       clipPathUnits="userSpaceOnUse"
       id="clipPath24"><path
         d="M 0,1080 H 1920 V 0 H 0 Z"
         transform="translate(-646.65992,-79.181177)"
         id="path24" /></clipPath><clipPath
       clipPathUnits="userSpaceOnUse"
       id="clipPath26"><path
         d="M 0,1080 H 1920 V 0 H 0 Z"
         transform="translate(-747.70342,-106.22333)"
         id="path26" /></clipPath><clipPath
       clipPathUnits="userSpaceOnUse"
       id="clipPath28"><path
         d="M 0,1080 H 1920 V 0 H 0 Z"
         transform="translate(-776.94234,-79.181177)"
         id="path28" /></clipPath><clipPath
       clipPathUnits="userSpaceOnUse"
       id="clipPath30"><path
         d="M 0,1080 H 1920 V 0 H 0 Z"
         transform="translate(-858.8188,-136.04483)"
         id="path30" /></clipPath><clipPath
       clipPathUnits="userSpaceOnUse"
       id="clipPath32"><path
         d="M 0,1080 H 1920 V 0 H 0 Z"
         transform="translate(-926.45905,-106.22333)"
         id="path32" /></clipPath><clipPath
       clipPathUnits="userSpaceOnUse"
       id="clipPath34"><path
         d="M 0,1080 H 1920 V 0 H 0 Z"
         transform="translate(-978.28225,-78.822377)"
         id="path34" /></clipPath><clipPath
       clipPathUnits="userSpaceOnUse"
       id="clipPath36"><path
         d="M 0,1080 H 1920 V 0 H 0 Z"
         transform="translate(-1039.2114,-76.311602)"
         id="path36" /></clipPath><clipPath
       clipPathUnits="userSpaceOnUse"
       id="clipPath38"><path
         d="M 0,1080 H 1920 V 0 H 0 Z"
         transform="translate(-1116.4293,-136.04483)"
         id="path38" /></clipPath><clipPath
       clipPathUnits="userSpaceOnUse"
       id="clipPath40"><path
         d="M 0,1080 H 1920 V 0 H 0 Z"
         transform="translate(-1180.6687,-126.2787)"
         id="path40" /></clipPath><clipPath
       clipPathUnits="userSpaceOnUse"
       id="clipPath42"><path
         d="M 0,1080 H 1920 V 0 H 0 Z"
         transform="translate(-1213.3932,-79.181177)"
         id="path42" /></clipPath><clipPath
       clipPathUnits="userSpaceOnUse"
       id="clipPath44"><path
         d="M 0,1080 H 1920 V 0 H 0 Z"
         transform="translate(-1291.1532,-136.04483)"
         id="path44" /></clipPath><clipPath
       clipPathUnits="userSpaceOnUse"
       id="clipPath46"><path
         d="M 0,1080 H 1920 V 0 H 0 Z"
         transform="translate(-977.70685,-994.18622)"
         id="path46" /></clipPath><clipPath
       clipPathUnits="userSpaceOnUse"
       id="clipPath48"><path
         d="M 0,1080 H 1920 V 0 H 0 Z"
         transform="translate(-883.66742,-734.01042)"
         id="path48" /></clipPath><clipPath
       clipPathUnits="userSpaceOnUse"
       id="clipPath50"><path
         d="M 0,1080 H 1920 V 0 H 0 Z"
         transform="translate(-1024.7679,-917.61203)"
         id="path50" /></clipPath><clipPath
       clipPathUnits="userSpaceOnUse"
       id="clipPath52"><path
         d="M 0,1080 H 1920 V 0 H 0 Z"
         transform="translate(-893.85385,-792.45972)"
         id="path52" /></clipPath><clipPath
       clipPathUnits="userSpaceOnUse"
       id="clipPath54"><path
         d="M 0,1080 H 1920 V 0 H 0 Z"
         transform="translate(-920.04175,-665.97011)"
         id="path54" /></clipPath><clipPath
       clipPathUnits="userSpaceOnUse"
       id="clipPath56"><path
         d="M 0,1080 H 1920 V 0 H 0 Z"
         transform="translate(-1150.2324,-675.87812)"
         id="path56" /></clipPath></defs><g
     id="layer-MC0"
    
    ><path
       id="path1"
       d="m 0,0 h -191.222 c -5.735,0 -10.398,-4.665 -10.398,-10.4 v -5.388 c 0,-5.735 4.663,-10.4 10.398,-10.4 H 0 c 5.734,0 10.399,4.665 10.399,10.4 V -10.4 C 10.399,-4.665 5.734,0 0,0"
       style="fill:#13336e;fill-opacity:1;fill-rule:nonzero;stroke:none"
       transform="matrix(1.3333333,0,0,-1.3333333,1648.9316,460.97907)"
       clip-path="url(#clipPath2)" /><path
       id="path3"
       d="m 0,0 c 0,5.734 -4.665,10.399 -10.397,10.399 h -5.391 C -21.521,10.399 -26.186,5.734 -26.186,0 v -191.22 c 0,-5.737 4.665,-10.4 10.398,-10.4 h 5.391 c 5.732,0 10.397,4.663 10.397,10.4 z"
       style="fill:#13336e;fill-opacity:1;fill-rule:nonzero;stroke:none"
       transform="matrix(1.3333333,0,0,-1.3333333,1303.6091,587.28987)"
       clip-path="url(#clipPath4)" /><path
       id="path5"
       d="m 0,0 c 12.814,-11.41 20.022,-14.613 31.633,-14.613 15.015,0 25.425,9.408 25.425,23.021 0,7.81 -3.004,13.618 -9.611,18.421 -2.801,2 -8.609,5.007 -19.421,10.212 -22.821,10.808 -31.631,21.222 -31.631,37.441 0,21.82 18.018,36.835 44.249,36.835 11.008,0 19.416,-2.002 31.032,-7.207 l -4.21,-14.216 c -10.807,7.81 -19.017,10.812 -28.025,10.812 -12.612,0 -22.026,-8.408 -22.026,-19.818 0,-11.013 5.205,-16.018 27.628,-26.229 14.017,-6.409 21.026,-11.21 25.827,-17.618 5.009,-6.406 7.409,-14.015 7.409,-22.423 0,-12.812 -6.206,-25.229 -16.219,-32.635 -7.205,-5.205 -17.816,-8.21 -29.628,-8.21 -13.413,0 -23.223,2.804 -37.039,10.21 z"
       style="fill:#13336e;fill-opacity:1;fill-rule:nonzero;stroke:none"
       transform="matrix(1.3333333,0,0,-1.3333333,574.8164,1113.8073)"
       clip-path="url(#clipPath6)" /><path
       id="path7"
       d="m 0,0 c -0.603,-2.002 -0.803,-3.203 -0.803,-5.607 h -12.614 c 1.404,2.203 2.002,3.605 2.806,5.607 l 43.646,123.127 c 0.598,2.005 0.799,3.005 1,4.806 h 19.22 c 0.201,-1.603 0.397,-2.605 1.002,-4.404 L 99.304,0 c 0.8,-2.002 1.398,-3.002 3.203,-5.607 h -26.03 c 0,2.203 -0.198,3.203 -1,5.607 L 62.665,36.238 H 13.011 Z M 58.862,46.05 37.238,106.309 16.214,46.05 Z"
       style="fill:#13336e;fill-opacity:1;fill-rule:nonzero;stroke:none"
       transform="matrix(1.3333333,0,0,-1.3333333,709.07147,1138.6303)"
       clip-path="url(#clipPath8)" /><path
       id="path9"
       d="m 0,0 c 0,-2.605 0.201,-4.004 0.799,-6.406 h -11.812 c 0.603,2.605 0.803,4.203 0.803,6.406 v 120.726 c 0,2.403 -0.2,3.803 -0.803,6.408 h 21.222 c 0.402,-1.801 0.603,-2.203 2.404,-4.607 L 85.49,20.421 v 100.305 c 0,2.403 -0.201,4.004 -0.801,6.408 h 11.814 c -0.605,-2.203 -0.805,-3.203 -0.805,-6.408 V -0.402 c 0,-3.203 0.2,-4.004 1.002,-6.004 H 77.281 l -0.802,1.799 c -0.6,1.002 -1.399,2.002 -2.203,3.205 L 0,102.507 Z"
       style="fill:#13336e;fill-opacity:1;fill-rule:nonzero;stroke:none"
       transform="matrix(1.3333333,0,0,-1.3333333,883.3636,1137.564)"
       clip-path="url(#clipPath10)" /><path
       id="path11"
       d="m 0,0 v -12.214 c -3.806,0.804 -5.808,1 -8.212,1 h -29.026 v -115.92 c 0,-2.605 0.201,-4.002 0.8,-6.406 h -23.828 c 0.603,2.404 0.802,3.801 0.802,6.406 v 115.92 h -29.028 c -2.806,0 -4.808,-0.196 -8.409,-1 l 0,12.214 z"
       style="fill:#13336e;fill-opacity:1;fill-rule:nonzero;stroke:none"
       transform="matrix(1.3333333,0,0,-1.3333333,1159.8949,968.0528)"
       clip-path="url(#clipPath12)" /><path
       id="path13"
       d="m 0,0 c -0.603,-2.002 -0.803,-3.203 -0.803,-5.607 h -12.614 c 1.404,2.203 2.002,3.605 2.806,5.607 l 43.646,123.127 c 0.598,2.005 0.799,3.005 0.999,4.806 h 19.221 c 0.201,-1.603 0.397,-2.605 1.002,-4.404 L 99.304,0 c 0.8,-2.002 1.398,-3.002 3.203,-5.607 h -26.03 c 0,2.203 -0.201,3.203 -1,5.607 L 62.665,36.238 H 13.011 Z M 58.862,46.05 37.238,106.309 16.214,46.05 Z"
       style="fill:#13336e;fill-opacity:1;fill-rule:nonzero;stroke:none"
       transform="matrix(1.3333333,0,0,-1.3333333,1166.8196,1138.6303)"
       clip-path="url(#clipPath14)" /><path
       id="path15"
       d="m 0,0 c -11.812,9.808 -19.819,13.011 -31.834,13.011 -27.425,0 -44.248,-21.821 -44.248,-57.259 0,-35.035 17.622,-57.862 44.849,-57.862 12.013,0 20.023,3.607 31.233,14.216 v -17.62 c -12.614,-6.004 -21.223,-8.006 -34.836,-8.006 -42.043,0 -65.067,24.626 -65.067,69.673 0,43.445 24.627,67.871 68.27,67.871 12.212,0 20.821,-1.601 31.633,-6.005 z"
       style="fill:#13336e;fill-opacity:1;fill-rule:nonzero;stroke:none"
       transform="matrix(1.3333333,0,0,-1.3333333,1529.8348,997.4152)"
       clip-path="url(#clipPath16)" /><path
       id="path17"
       d="m 0,0 c -0.603,-2.002 -0.804,-3.203 -0.804,-5.607 h -12.611 c 1.402,2.203 2,3.605 2.804,5.607 l 43.645,123.127 c 0.599,2.005 0.8,3.005 1,4.806 h 19.221 c 0.201,-1.603 0.399,-2.605 1.002,-4.404 L 99.304,0 c 0.8,-2.002 1.398,-3.002 3.203,-5.607 H 76.479 c 0,2.203 -0.201,3.203 -1,5.607 L 62.665,36.238 H 13.011 Z M 58.862,46.05 37.24,106.309 16.214,46.05 Z"
       style="fill:#13336e;fill-opacity:1;fill-rule:nonzero;stroke:none"
       transform="matrix(1.3333333,0,0,-1.3333333,1565.5851,1138.6303)"
       clip-path="url(#clipPath18)" /><path
       id="path19"
       d="m 0,0 c 12.814,-11.41 20.019,-14.613 31.633,-14.613 15.015,0 25.423,9.408 25.423,23.021 0,7.81 -3.002,13.618 -9.609,18.421 -2.801,2 -8.609,5.007 -19.421,10.212 -22.821,10.808 -31.631,21.222 -31.631,37.441 0,21.82 18.017,36.835 44.249,36.835 11.008,0 19.416,-2.002 31.028,-7.207 L 67.466,89.894 c -10.807,7.81 -19.017,10.812 -28.025,10.812 -12.616,0 -22.026,-8.408 -22.026,-19.818 0,-11.013 5.205,-16.018 27.628,-26.229 14.015,-6.409 21.026,-11.21 25.827,-17.618 5.009,-6.406 7.409,-14.015 7.409,-22.423 0,-12.812 -6.206,-25.229 -16.214,-32.635 -7.21,-5.205 -17.821,-8.21 -29.633,-8.21 -13.413,0 -23.225,2.804 -37.039,10.21 z"
       style="fill:#13336e;fill-opacity:1;fill-rule:nonzero;stroke:none"
       transform="matrix(1.3333333,0,0,-1.3333333,1720.3921,1113.8073)"
       clip-path="url(#clipPath20)" /><path
       id="path21"
       d="m 0,0 c -0.603,-2.002 -0.803,-3.203 -0.803,-5.607 h -12.614 c 1.404,2.203 2.002,3.605 2.806,5.607 l 43.645,123.127 c 0.599,2.005 0.8,3.005 1,4.806 h 19.221 c 0.201,-1.603 0.399,-2.605 1.002,-4.404 L 99.304,0 c 0.8,-2.002 1.398,-3.002 3.203,-5.607 H 76.479 c 0,2.203 -0.201,3.203 -1.002,5.607 L 62.665,36.238 H 13.011 Z M 58.857,46.05 37.238,106.309 16.214,46.05 Z"
       style="fill:#13336e;fill-opacity:1;fill-rule:nonzero;stroke:none"
       transform="matrix(1.3333333,0,0,-1.3333333,1854.6467,1138.6303)"
       clip-path="url(#clipPath22)" /><path
       id="path23"
       d="m 0,0 c 0,-0.896 0.091,-1.613 0.449,-2.87 h -10.747 c 0.27,1.257 0.358,1.974 0.358,2.87 v 53.996 c 0,0.985 -0.088,1.702 -0.358,2.868 H 8.687 c 12.091,0 19.341,-6.179 19.341,-16.484 0,-10.924 -8.149,-17.544 -21.669,-17.544 l -6.359,0 z m 5.374,27.402 c 2.864,0 5.196,0.538 6.985,1.604 3.494,1.975 5.552,6.27 5.552,11.195 0,7.613 -4.477,12.27 -11.732,12.27 H 0 V 27.402 Z"
       style="fill:#13336e;fill-opacity:1;fill-rule:nonzero;stroke:none"
       transform="matrix(1.3333333,0,0,-1.3333333,862.2132,1334.4251)"
       clip-path="url(#clipPath24)" /><path
       id="path25"
       d="m 0,0 c 0,-19.795 -10.566,-30.808 -29.553,-30.808 -18.983,0 -29.281,11.013 -29.281,31.346 0,18.98 10.927,30.173 29.46,30.173 C -10.654,30.711 0,19.518 0,0 m -48.177,0.359 c 0,-17.642 6.27,-26.512 18.894,-26.512 12.089,0 18.629,9.138 18.629,25.974 0,17.283 -6.45,26.235 -18.72,26.235 -12.265,0 -18.803,-8.952 -18.803,-25.697"
       style="fill:#13336e;fill-opacity:1;fill-rule:nonzero;stroke:none"
       transform="matrix(1.3333333,0,0,-1.3333333,996.93787,1298.3689)"
       clip-path="url(#clipPath26)" /><path
       id="path27"
       d="m 0,0 c 0,-1.076 0.091,-1.704 0.358,-2.87 h -10.745 c 0.27,1.077 0.359,1.704 0.359,2.87 v 53.996 c 0,0.896 -0.089,1.613 -0.359,2.868 H 7.79 c 11.108,0 18.718,-6.538 18.718,-16.214 0,-6.443 -3.402,-11.285 -9.493,-13.607 -1.97,-0.808 -3.404,-1.166 -6.624,-1.795 L 30,-0.538 c 1.162,-1.434 1.253,-1.613 2.419,-2.332 H 19.341 c -0.354,1.077 -0.622,1.615 -1.25,2.6 L 0,24.801 Z m 4.57,28.207 c 6.983,0 11.817,4.925 11.817,11.994 0,3.767 -1.521,7.525 -4.028,9.676 C 10.3,51.663 7.79,52.471 4.121,52.471 H -0.091 V 28.207 Z"
       style="fill:#13336e;fill-opacity:1;fill-rule:nonzero;stroke:none"
       transform="matrix(1.3333333,0,0,-1.3333333,1035.9231,1334.4251)"
       clip-path="url(#clipPath28)" /><path
       id="path29"
       d="m 0,0 v -5.462 c -1.7,0.352 -2.596,0.44 -3.667,0.44 h -12.987 v -51.842 c 0,-1.166 0.088,-1.793 0.358,-2.868 h -10.656 c 0.27,1.075 0.358,1.702 0.358,2.868 v 51.842 h -12.985 c -1.253,0 -2.149,-0.088 -3.76,-0.44 l 0,5.462 z"
       style="fill:#13336e;fill-opacity:1;fill-rule:nonzero;stroke:none"
       transform="matrix(1.3333333,0,0,-1.3333333,1145.0917,1258.6069)"
       clip-path="url(#clipPath30)" /><path
       id="path31"
       d="m 0,0 c 0,-19.795 -10.566,-30.808 -29.549,-30.808 -18.989,0 -29.285,11.013 -29.285,31.346 0,18.98 10.925,30.173 29.46,30.173 C -10.657,30.711 0,19.518 0,0 m -48.177,0.359 c 0,-17.642 6.268,-26.512 18.892,-26.512 12.091,0 18.628,9.138 18.628,25.974 0,17.283 -6.449,26.235 -18.717,26.235 -12.265,0 -18.803,-8.952 -18.803,-25.697"
       style="fill:#13336e;fill-opacity:1;fill-rule:nonzero;stroke:none"
       transform="matrix(1.3333333,0,0,-1.3333333,1235.2787,1298.3689)"
       clip-path="url(#clipPath32)" /><path
       id="path33"
       d="M 0,0 C -0.27,-0.896 -0.359,-1.434 -0.359,-2.51 H -6 c 0.626,0.985 0.896,1.614 1.255,2.51 l 19.52,55.071 c 0.27,0.897 0.361,1.344 0.45,2.151 h 8.596 C 23.911,56.505 24,56.056 24.266,55.25 L 44.415,0 c 0.358,-0.896 0.628,-1.346 1.436,-2.51 H 34.207 c 0,0.985 -0.088,1.434 -0.447,2.51 L 28.028,16.207 H 5.821 Z M 26.328,20.594 16.657,47.546 7.253,20.594 Z"
       style="fill:#13336e;fill-opacity:1;fill-rule:nonzero;stroke:none"
       transform="matrix(1.3333333,0,0,-1.3333333,1304.3763,1334.9035)"
       clip-path="url(#clipPath34)" /><path
       id="path35"
       d="m 0,0 c 0.27,1.166 0.358,1.883 0.358,2.78 v 54.084 c 0,0.987 -0.088,1.613 -0.358,2.868 h 10.656 c -0.27,-1.075 -0.36,-1.793 -0.36,-2.868 V 4.834 H 27.22 c 1.616,0 1.974,0.09 3.046,0.449 V 0 Z"
       style="fill:#13336e;fill-opacity:1;fill-rule:nonzero;stroke:none"
       transform="matrix(1.3333333,0,0,-1.3333333,1385.6152,1338.2512)"
       clip-path="url(#clipPath36)" /><path
       id="path37"
       d="m 0,0 v -4.842 c -1.166,0.358 -1.611,0.449 -2.775,0.449 h -17.823 v -22.836 h 17.373 c 1.704,0 1.97,0 3.314,0.359 v -4.834 c -1.167,0.268 -1.519,0.268 -3.223,0.268 h -17.464 v -23.462 h 17.285 c 1.075,0 1.792,0.088 3.402,0.447 v -5.281 h -30.983 c 0.27,1.075 0.358,1.702 0.358,2.868 v 53.996 c 0,1.255 -0.088,1.792 -0.358,2.868 z"
       style="fill:#13336e;fill-opacity:1;fill-rule:nonzero;stroke:none"
       transform="matrix(1.3333333,0,0,-1.3333333,1488.5723,1258.6069)"
       clip-path="url(#clipPath38)" /><path
       id="path39"
       d="m 0,0 c -5.821,4.035 -10.477,5.641 -16.207,5.641 -5.733,0 -10.566,-2.054 -14.149,-6 -4.212,-4.654 -6.091,-10.835 -6.091,-20.056 0,-16.207 7.073,-25.613 19.343,-25.613 3.581,0 5.91,0.626 9.225,2.51 v 23.373 c 0,1.167 -0.091,1.786 -0.359,2.862 H 2.151 C 1.883,-18.449 1.793,-19.069 1.793,-20.145 V -43.16 c 0,-1.704 0.09,-2.242 0.624,-3.587 -10.834,-3.488 -13.7,-4.117 -20.594,-4.117 -9.134,0 -15.583,2.333 -20.596,7.434 -5.462,5.644 -8.329,13.519 -8.329,23.106 0,19.248 11.553,30.978 30.445,30.978 5.821,0 10.121,-0.799 16.657,-3.22 z"
       style="fill:#13336e;fill-opacity:1;fill-rule:nonzero;stroke:none"
       transform="matrix(1.3333333,0,0,-1.3333333,1574.2249,1271.6284)"
       clip-path="url(#clipPath40)" /><path
       id="path41"
       d="m 0,0 c 0,-1.076 0.089,-1.704 0.359,-2.87 h -10.746 c 0.268,1.077 0.359,1.704 0.359,2.87 v 53.996 c 0,0.896 -0.091,1.613 -0.359,2.868 H 7.791 c 11.105,0 18.717,-6.538 18.717,-16.214 0,-6.443 -3.404,-11.285 -9.495,-13.607 -1.968,-0.808 -3.402,-1.166 -6.622,-1.795 L 30,-0.538 c 1.162,-1.434 1.253,-1.613 2.419,-2.332 H 19.341 c -0.354,1.077 -0.622,1.615 -1.25,2.6 L 0,24.801 Z m 4.568,28.207 c 6.985,0 11.819,4.925 11.819,11.994 0,3.767 -1.521,7.525 -4.028,9.676 -2.059,1.786 -4.568,2.594 -8.238,2.594 H -0.091 V 28.207 Z"
       style="fill:#13336e;fill-opacity:1;fill-rule:nonzero;stroke:none"
       transform="matrix(1.3333333,0,0,-1.3333333,1617.8575,1334.4251)"
       clip-path="url(#clipPath42)" /><path
       id="path43"
       d="m 0,0 v -4.842 c -1.166,0.358 -1.611,0.449 -2.775,0.449 h -17.823 v -22.836 h 17.373 c 1.704,0 1.97,0 3.314,0.359 v -4.834 c -1.165,0.268 -1.521,0.268 -3.223,0.268 h -17.464 v -23.462 h 17.285 c 1.075,0 1.792,0.088 3.402,0.447 v -5.281 h -30.983 c 0.268,1.075 0.358,1.702 0.358,2.868 v 53.996 c 0,1.255 -0.09,1.792 -0.358,2.868 z"
       style="fill:#13336e;fill-opacity:1;fill-rule:nonzero;stroke:none"
       transform="matrix(1.3333333,0,0,-1.3333333,1721.5375,1258.6069)"
       clip-path="url(#clipPath44)" /><path
       id="path45"
       d="m 0,0 c 0,5.734 -4.665,10.4 -10.397,10.4 h -5.391 C -21.521,10.4 -26.186,5.734 -26.186,0 v -191.22 c 0,-5.737 4.665,-10.4 10.398,-10.4 h 5.391 c 5.732,0 10.397,4.663 10.397,10.4 z"
       style="fill:#13336e;fill-opacity:1;fill-rule:nonzero;stroke:none"
       transform="matrix(1.3333333,0,0,-1.3333333,1303.6091,114.4184)"
       clip-path="url(#clipPath46)" /><path
       id="path47"
       d="m 0,0 h -191.222 c -5.735,0 -10.4,-4.665 -10.4,-10.4 v -5.388 c 0,-5.735 4.665,-10.4 10.4,-10.4 H 0 c 5.732,0 10.397,4.665 10.397,10.4 V -10.4 C 10.397,-4.665 5.732,0 0,0"
       style="fill:#13336e;fill-opacity:1;fill-rule:nonzero;stroke:none"
       transform="matrix(1.3333333,0,0,-1.3333333,1178.2232,461.31947)"
       clip-path="url(#clipPath48)" /><path
       id="path49"
       d="m 0,0 h -5.747 c -5.635,0 -10.219,-4.583 -10.219,-10.218 l -0.002,-131.21 c 0,-5.639 4.583,-10.222 10.221,-10.222 h 131.211 c 5.635,0 10.221,4.583 10.221,10.222 v 5.748 c 0,5.633 -4.586,10.218 -10.221,10.218 H 10.22 V -10.218 C 10.22,-4.583 5.637,0 0,0"
       style="fill:#13336e;fill-opacity:1;fill-rule:nonzero;stroke:none"
       transform="matrix(1.3333333,0,0,-1.3333333,1366.3572,216.51733)"
       clip-path="url(#clipPath50)" /><path
       id="path51"
       d="m 0,0 h -115.244 c -5.637,0 -10.22,-4.583 -10.22,-10.222 v -5.748 c 0,-5.635 4.583,-10.218 10.22,-10.218 H 15.968 c 5.637,0 10.22,4.583 10.22,10.218 v 131.214 c 0,5.635 -4.583,10.218 -10.22,10.218 H 10.22 C 4.585,125.462 0,120.879 0,115.244 Z"
       style="fill:#13336e;fill-opacity:1;fill-rule:nonzero;stroke:none"
       transform="matrix(1.3333333,0,0,-1.3333333,1191.8051,383.38707)"
       clip-path="url(#clipPath52)" /><path
       id="path53"
       d="m 0,0 c 0,5.635 -4.583,10.218 -10.22,10.218 h -131.212 c -5.637,0 -10.22,-4.583 -10.22,-10.218 v -5.747 c 0,-5.638 4.583,-10.223 10.22,-10.223 h 115.244 v -115.244 c 0,-5.635 4.585,-10.218 10.22,-10.218 h 5.748 c 5.637,0 10.22,4.583 10.22,10.218 z"
       style="fill:#13336e;fill-opacity:1;fill-rule:nonzero;stroke:none"
       transform="matrix(1.3333333,0,0,-1.3333333,1226.7223,552.03987)"
       clip-path="url(#clipPath54)" /><path
       id="path55"
       d="m 0,0 h -131.212 c -5.635,0 -10.218,-4.583 -10.218,-10.218 v -131.214 c 0,-5.635 4.583,-10.218 10.218,-10.218 h 5.748 c 5.637,0 10.22,4.583 10.22,10.218 V -26.184 H 0 c 5.635,0 10.22,4.584 10.22,10.218 v 5.748 C 10.22,-4.583 5.635,0 0,0"
       style="fill:#13336e;fill-opacity:1;fill-rule:nonzero;stroke:none"
       transform="matrix(1.3333333,0,0,-1.3333333,1533.6432,538.8292)"
       clip-path="url(#clipPath56)" /></g></svg>